<svg xmlns="http://www.w3.org/2000/svg" viewBox="0 0 800 400">
  <!-- Sky background -->
  <rect width="800" height="400" fill="#B3E0FF"/>
  
  <!-- Clouds -->
  <g fill="#FFFFFF">
    <ellipse cx="100" cy="80" rx="50" ry="30"/>
    <ellipse cx="300" cy="60" rx="60" ry="25"/>
    <ellipse cx="500" cy="100" rx="55" ry="35"/>
    <ellipse cx="700" cy="70" rx="45" ry="28"/>
  </g>
  
  <!-- Ground -->
  <rect x="0" y="250" width="800" height="150" fill="#78A355"/>
  
  <!-- Wind Turbines -->
  <g>
    <!-- Turbine 1 -->
    <g transform="translate(200, 250)">
      <rect x="-10" y="-150" width="20" height="150" fill="#CCCCCC"/>
      <circle cx="0" cy="-150" r="5" fill="#666666"/>
      <g transform="rotate(0)">
        <rect x="-60" y="-5" width="120" height="10" fill="#FFFFFF"/>
      </g>
      <g transform="rotate(120)">
        <rect x="-60" y="-5" width="120" height="10" fill="#FFFFFF"/>
      </g>
      <g transform="rotate(240)">
        <rect x="-60" y="-5" width="120" height="10" fill="#FFFFFF"/>
      </g>
    </g>
    
    <!-- Turbine 2 -->
    <g transform="translate(400, 250)">
      <rect x="-10" y="-180" width="20" height="180" fill="#CCCCCC"/>
      <circle cx="0" cy="-180" r="5" fill="#666666"/>
      <g transform="rotate(30)">
        <rect x="-70" y="-5" width="140" height="10" fill="#FFFFFF"/>
      </g>
      <g transform="rotate(150)">
        <rect x="-70" y="-5" width="140" height="10" fill="#FFFFFF"/>
      </g>
      <g transform="rotate(270)">
        <rect x="-70" y="-5" width="140" height="10" fill="#FFFFFF"/>
      </g>
    </g>
    
    <!-- Turbine 3 -->
    <g transform="translate(600, 250)">
      <rect x="-10" y="-160" width="20" height="160" fill="#CCCCCC"/>
      <circle cx="0" cy="-160" r="5" fill="#666666"/>
      <g transform="rotate(60)">
        <rect x="-65" y="-5" width="130" height="10" fill="#FFFFFF"/>
      </g>
      <g transform="rotate(180)">
        <rect x="-65" y="-5" width="130" height="10" fill="#FFFFFF"/>
      </g>
      <g transform="rotate(300)">
        <rect x="-65" y="-5" width="130" height="10" fill="#FFFFFF"/>
      </g>
    </g>
  </g>
</svg>