<svg xmlns="http://www.w3.org/2000/svg" viewBox="0 0 400 300">
  <!-- Sky -->
  <rect width="400" height="300" fill="#B3E0FF"/>
  
  <!-- Clouds -->
  <g fill="#FFFFFF">
    <ellipse cx="50" cy="40" rx="25" ry="15"/>
    <ellipse cx="150" cy="30" rx="30" ry="12"/>
    <ellipse cx="250" cy="50" rx="28" ry="18"/>
  </g>
  
  <!-- Offshore Platform -->
  <rect x="120" y="150" width="160" height="100" fill="#666666"/>
  
  <!-- Wind Turbine -->
  <g transform="translate(200, 150)">
    <!-- Tower -->
    <rect x="-8" y="-100" width="16" height="100" fill="#CCCCCC"/>
    
    <!-- Hub -->
    <circle cx="0" cy="-100" r="5" fill="#666666"/>
    
    <!-- Blades -->
    <g transform="rotate(0)">
      <rect x="-50" y="-5" width="100" height="10" fill="#FFFFFF" transform="translate(0, -100)"/>
    </g>
    <g transform="rotate(120)">
      <rect x="-50" y="-5" width="100" height="10" fill="#FFFFFF" transform="translate(0, -100)"/>
    </g>
    <g transform="rotate(240)">
      <rect x="-50" y="-5" width="100" height="10" fill="#FFFFFF" transform="translate(0, -100)"/>
    </g>
  </g>
  
  <!-- Ocean -->
  <path d="M0 250 Q100 230 200 250 T400 250 L400 300 L0 300 Z" fill="#4682B4"/>
</svg>